<svg id="visual" viewBox="0 0 900 600" width="900" height="600" xmlns="http://www.w3.org/2000/svg" xmlns:xlink="http://www.w3.org/1999/xlink" version="1.1"><rect x="0" y="0" width="900" height="600" fill="#222831"></rect><path d="M0 330L25 317.7C50 305.3 100 280.7 150 279.7C200 278.7 250 301.3 300 312.3C350 323.3 400 322.7 450 312C500 301.3 550 280.7 600 276.2C650 271.7 700 283.3 750 294.8C800 306.3 850 317.7 875 323.3L900 329L900 0L875 0C850 0 800 0 750 0C700 0 650 0 600 0C550 0 500 0 450 0C400 0 350 0 300 0C250 0 200 0 150 0C100 0 50 0 25 0L0 0Z" fill="#fa7268"></path><path d="M0 199L25 195C50 191 100 183 150 187.7C200 192.3 250 209.7 300 212.8C350 216 400 205 450 202.3C500 199.7 550 205.3 600 203.5C650 201.7 700 192.3 750 192.8C800 193.3 850 203.7 875 208.8L900 214L900 0L875 0C850 0 800 0 750 0C700 0 650 0 600 0C550 0 500 0 450 0C400 0 350 0 300 0C250 0 200 0 150 0C100 0 50 0 25 0L0 0Z" fill="#e34c67"></path><path d="M0 97L25 101.3C50 105.7 100 114.3 150 111.5C200 108.7 250 94.3 300 93C350 91.7 400 103.3 450 110C500 116.7 550 118.3 600 112C650 105.7 700 91.3 750 83.5C800 75.7 850 74.3 875 73.7L900 73L900 0L875 0C850 0 800 0 750 0C700 0 650 0 600 0C550 0 500 0 450 0C400 0 350 0 300 0C250 0 200 0 150 0C100 0 50 0 25 0L0 0Z" fill="#c62368"></path></svg>