<svg id="visual" viewBox="0 0 900 600" width="900" height="600" xmlns="http://www.w3.org/2000/svg" xmlns:xlink="http://www.w3.org/1999/xlink" version="1.1"><rect x="0" y="0" width="900" height="600" fill="#222831"></rect><defs><linearGradient id="grad1_0" x1="33.3%" y1="0%" x2="100%" y2="100%"><stop offset="20%" stop-color="#222831" stop-opacity="1"></stop><stop offset="80%" stop-color="#222831" stop-opacity="1"></stop></linearGradient></defs><defs><linearGradient id="grad2_0" x1="0%" y1="0%" x2="66.7%" y2="100%"><stop offset="20%" stop-color="#222831" stop-opacity="1"></stop><stop offset="80%" stop-color="#222831" stop-opacity="1"></stop></linearGradient></defs><g transform="translate(900, 0)"><path d="M0 486.7C-54.6 449.5 -109.2 412.2 -158.8 383.4C-208.4 354.7 -253 334.5 -305.5 305.5C-357.9 276.5 -418.2 238.7 -449.7 186.3C-481.2 133.9 -484 66.9 -486.7 0L0 0Z" fill="#F0A500"></path></g><g transform="translate(0, 600)"><path d="M0 -486.7C65.4 -482.3 130.8 -477.9 186.3 -449.7C241.8 -421.5 287.3 -369.5 317.5 -317.5C347.6 -265.5 362.4 -213.6 388 -160.7C413.7 -107.8 450.2 -53.9 486.7 0L0 0Z" fill="#F0A500"></path></g></svg>