<svg id="visual" viewBox="0 0 900 600" width="900" height="600" xmlns="http://www.w3.org/2000/svg" xmlns:xlink="http://www.w3.org/1999/xlink" version="1.1"><rect x="0" y="0" width="900" height="600" fill="#222831"></rect><path d="M0 314L25 305C50 296 100 278 150 283.8C200 289.7 250 319.3 300 322.8C350 326.3 400 303.7 450 296.3C500 289 550 297 600 309.7C650 322.3 700 339.7 750 341.7C800 343.7 850 330.3 875 323.7L900 317L900 601L875 601C850 601 800 601 750 601C700 601 650 601 600 601C550 601 500 601 450 601C400 601 350 601 300 601C250 601 200 601 150 601C100 601 50 601 25 601L0 601Z" fill="#fa7268"></path><path d="M0 406L25 393.8C50 381.7 100 357.3 150 349.5C200 341.7 250 350.3 300 350.8C350 351.3 400 343.7 450 352.7C500 361.7 550 387.3 600 399.2C650 411 700 409 750 393.5C800 378 850 349 875 334.5L900 320L900 601L875 601C850 601 800 601 750 601C700 601 650 601 600 601C550 601 500 601 450 601C400 601 350 601 300 601C250 601 200 601 150 601C100 601 50 601 25 601L0 601Z" fill="#e34c67"></path><path d="M0 411L25 425.7C50 440.3 100 469.7 150 486.5C200 503.3 250 507.7 300 493.2C350 478.7 400 445.3 450 433.5C500 421.7 550 431.3 600 432.3C650 433.3 700 425.7 750 433.8C800 442 850 466 875 478L900 490L900 601L875 601C850 601 800 601 750 601C700 601 650 601 600 601C550 601 500 601 450 601C400 601 350 601 300 601C250 601 200 601 150 601C100 601 50 601 25 601L0 601Z" fill="#c62368"></path></svg>